HIERARCHY
ROOT joint_0
{
	OFFSET 0.000000 0.000000 0.000000
	CHANNELS 6 Xposition Yposition Zposition Zrotation Yrotation Xrotation 
	JOINT joint_1
	{
		OFFSET 4.520508 -1.939880 86.268921
		CHANNELS 3 Zrotation Yrotation Xrotation
		JOINT joint_2
		{
			OFFSET -4.459717 -0.438538 78.934082
			CHANNELS 3 Zrotation Yrotation Xrotation
			JOINT joint_3
			{
				OFFSET -5.197754 -0.781128 78.796997
				CHANNELS 3 Zrotation Yrotation Xrotation
				JOINT joint_4
				{
					OFFSET 2.952026 -3.710571 109.812988
					CHANNELS 3 Zrotation Yrotation Xrotation
					JOINT joint_5
					{
						OFFSET 24.716797 -5.488037 87.903931
						CHANNELS 3 Zrotation Yrotation Xrotation
						End Site
						{
							OFFSET 0.000000 0.000000 0.000000
						}
					}
				}
				JOINT joint_6
				{
					OFFSET -3.154419 -25.484680 60.934937
					CHANNELS 3 Zrotation Yrotation Xrotation
					JOINT joint_7
					{
						OFFSET -28.997192 -144.472229 -32.671997
						CHANNELS 3 Zrotation Yrotation Xrotation
						JOINT joint_8
						{
							OFFSET 19.867676 -18.614380 -249.897949
							CHANNELS 3 Zrotation Yrotation Xrotation
							JOINT joint_9
							{
								OFFSET 5.281982 -13.816650 -264.993042
								CHANNELS 3 Zrotation Yrotation Xrotation
								End Site
								{
									OFFSET 0.000000 0.000000 0.000000
								}
							}
						}
					}
				}
				JOINT joint_10
				{
					OFFSET 6.494995 21.336792 62.257935
					CHANNELS 3 Zrotation Yrotation Xrotation
					JOINT joint_11
					{
						OFFSET 31.106567 145.200745 -27.007935
						CHANNELS 3 Zrotation Yrotation Xrotation
						JOINT joint_12
						{
							OFFSET 29.119141 24.684326 -248.460083
							CHANNELS 3 Zrotation Yrotation Xrotation
							JOINT joint_13
							{
								OFFSET 21.220093 31.248413 -262.703979
								CHANNELS 3 Zrotation Yrotation Xrotation
								End Site
								{
									OFFSET 0.000000 0.000000 0.000000
								}
							}
						}
					}
				}
			}
		}
	}
	JOINT joint_14
	{
		OFFSET -15.458496 -88.861694 -109.593018
		CHANNELS 3 Zrotation Yrotation Xrotation
		JOINT joint_15
		{
			OFFSET -6.193359 6.837952 -506.710999
			CHANNELS 3 Zrotation Yrotation Xrotation
			JOINT joint_16
			{
				OFFSET -35.096680 13.289795 -435.677025
				CHANNELS 3 Zrotation Yrotation Xrotation
				JOINT joint_17
				{
					OFFSET 158.491211 -33.916565 -71.771002
					CHANNELS 3 Zrotation Yrotation Xrotation
					End Site
					{
						OFFSET 0.000000 0.000000 0.000000
					}
				}
			}
		}
	}
	JOINT joint_18
	{
		OFFSET 23.116943 86.574158 -110.082031
		CHANNELS 3 Zrotation Yrotation Xrotation
		JOINT joint_19
		{
			OFFSET -6.125854 -0.283569 -506.757019
			CHANNELS 3 Zrotation Yrotation Xrotation
			JOINT joint_20
			{
				OFFSET -63.240234 11.589966 -432.537994
				CHANNELS 3 Zrotation Yrotation Xrotation
				JOINT joint_21
				{
					OFFSET 156.074219 -41.487305 -73.077999
					CHANNELS 3 Zrotation Yrotation Xrotation
					End Site
					{
						OFFSET 0.000000 0.000000 0.000000
					}
				}
			}
		}
	}
}
MOTION
Frames: 16
Frame Time: 0.016667
-470.505737 796.204834 1143.066040 41.388597 0.041094 0.227927 -0.423091 -1.943542 -1.279882 -0.282182 0.386839 0.257223 -0.308944 -0.365754 -0.185062 -0.020288 1.772070 0.334120 0.000000 0.000000 0.000000 -0.105330 0.797110 -0.139345 -0.125444 0.873767 0.666584 -0.409142 1.443149 -1.042701 0.000000 0.000000 0.000000 0.659589 0.477245 0.677812 -0.159823 0.820894 -0.683107 0.503541 1.129759 3.467263 0.000000 0.000000 0.000000 -0.234017 -0.220734 -1.450927 -0.201409 -0.630506 -0.217697 -0.188194 1.649644 0.268208 0.000000 0.000000 0.000000 0.115614 0.441159 0.631787 0.169215 -0.830510 -0.091120 0.204070 1.173160 0.408845 0.000000 0.000000 0.000000 
-470.629059 796.128113 1143.061035 41.363388 0.038501 0.225202 -0.419734 -1.923170 -1.275608 -0.279967 0.381581 0.256864 -0.306594 -0.360318 -0.184389 -0.019996 1.781102 0.333007 0.000000 0.000000 0.000000 -0.100133 0.791225 -0.129008 -0.125830 0.870297 0.668621 -0.409813 1.446695 -1.047423 0.000000 0.000000 0.000000 0.671543 0.467660 0.673817 -0.159731 0.808394 -0.683478 0.500430 1.119306 3.459545 0.000000 0.000000 0.000000 -0.226135 -0.226766 -1.450605 -0.193281 -0.634885 -0.216518 -0.180129 1.657950 0.273735 0.000000 0.000000 0.000000 0.123340 0.439438 0.628991 0.176527 -0.832073 -0.082678 0.212076 1.172057 0.412384 0.000000 0.000000 0.000000 
-470.751923 796.049255 1143.057983 41.344872 0.039903 0.223849 -0.418889 -1.907775 -1.271867 -0.280241 0.377334 0.255121 -0.306681 -0.356841 -0.183005 -0.019534 1.791183 0.331307 0.000000 0.000000 0.000000 -0.097734 0.786391 -0.118923 -0.126486 0.867250 0.670392 -0.410764 1.451784 -1.050311 0.000000 0.000000 0.000000 0.683192 0.460792 0.668342 -0.159883 0.798810 -0.686049 0.497638 1.110102 3.451698 0.000000 0.000000 0.000000 -0.220664 -0.234979 -1.452100 -0.187462 -0.643048 -0.214161 -0.174110 1.668873 0.278876 0.000000 0.000000 0.000000 0.129546 0.433336 0.627095 0.182225 -0.835306 -0.079011 0.218105 1.172502 0.415386 0.000000 0.000000 0.000000 
-470.874908 795.968933 1143.056030 41.330592 0.043387 0.223377 -0.419699 -1.896053 -1.269160 -0.281975 0.374842 0.253355 -0.308257 -0.353681 -0.181798 -0.019491 1.801642 0.331202 0.000000 0.000000 0.000000 -0.096133 0.781638 -0.108198 -0.127491 0.864405 0.671661 -0.411960 1.458161 -1.051188 0.000000 0.000000 0.000000 0.695230 0.455059 0.663079 -0.160384 0.791187 -0.692610 0.495113 1.101802 3.444534 0.000000 0.000000 0.000000 -0.216503 -0.243978 -1.454244 -0.182900 -0.653684 -0.212178 -0.169313 1.680823 0.283673 0.000000 0.000000 0.000000 0.134579 0.425335 0.625745 0.186727 -0.840342 -0.078293 0.222791 1.174145 0.418063 0.000000 0.000000 0.000000 
-471.007385 795.886047 1143.055054 41.320229 0.045557 0.222246 -0.421528 -1.879583 -1.265051 -0.284990 0.371071 0.251711 -0.311076 -0.349839 -0.180386 -0.019180 1.809058 0.329881 0.000000 0.000000 0.000000 -0.094206 0.777509 -0.099775 -0.127627 0.861008 0.675286 -0.411985 1.459878 -1.050742 0.000000 0.000000 0.000000 0.704479 0.450328 0.655254 -0.161426 0.785279 -0.702327 0.492748 1.093825 3.439510 0.000000 0.000000 0.000000 -0.213710 -0.253173 -1.454965 -0.179662 -0.661110 -0.211652 -0.165975 1.691554 0.287532 0.000000 0.000000 0.000000 0.138065 0.416028 0.623063 0.189502 -0.841886 -0.073676 0.226088 1.175871 0.420099 0.000000 0.000000 0.000000 
-471.153076 795.798706 1143.055054 41.314174 0.045059 0.219513 -0.423777 -1.856045 -1.258551 -0.288770 0.367217 0.250147 -0.314665 -0.347115 -0.179082 -0.018778 1.812752 0.328034 0.000000 0.000000 0.000000 -0.094520 0.775084 -0.094837 -0.126124 0.856815 0.682856 -0.409845 1.453065 -1.048336 0.000000 0.000000 0.000000 0.706480 0.446456 0.643966 -0.162905 0.781584 -0.715361 0.491165 1.088173 3.439015 0.000000 0.000000 0.000000 -0.212099 -0.262107 -1.452564 -0.177569 -0.663470 -0.214048 -0.164104 1.700132 0.290249 0.000000 0.000000 0.000000 0.139534 0.405799 0.618677 0.190032 -0.837833 -0.062171 0.227743 1.175946 0.420909 0.000000 0.000000 0.000000 
-471.307495 795.709473 1143.055054 41.311934 0.043487 0.215913 -0.427245 -1.829622 -1.250102 -0.294031 0.363438 0.247701 -0.319607 -0.342561 -0.176681 -0.017960 1.811510 0.324161 0.000000 0.000000 0.000000 -0.093603 0.772757 -0.092625 -0.123793 0.851719 0.692665 -0.406476 1.441378 -1.044302 0.000000 0.000000 0.000000 0.707014 0.442772 0.630426 -0.164745 0.778779 -0.732240 0.489894 1.083402 3.440374 0.000000 0.000000 0.000000 -0.211854 -0.271322 -1.448493 -0.176798 -0.662863 -0.218041 -0.163708 1.707222 0.291964 0.000000 0.000000 0.000000 0.139418 0.393982 0.613209 0.188795 -0.829938 -0.046713 0.227959 1.175629 0.420926 0.000000 0.000000 0.000000 
-471.468964 795.620850 1143.056030 41.309732 0.039786 0.212371 -0.429403 -1.798773 -1.241344 -0.298008 0.357765 0.247306 -0.323434 -0.336852 -0.176296 -0.017617 1.811571 0.322208 0.000000 0.000000 0.000000 -0.092894 0.770626 -0.089203 -0.121488 0.847140 0.701809 -0.403066 1.429178 -1.040275 0.000000 0.000000 0.000000 0.706157 0.439527 0.615934 -0.166943 0.776773 -0.750222 0.487924 1.076362 3.438736 0.000000 0.000000 0.000000 -0.211640 -0.280858 -1.445364 -0.175938 -0.657068 -0.220863 -0.163160 1.711670 0.293181 0.000000 0.000000 0.000000 0.139400 0.382362 0.607827 0.187670 -0.818970 -0.031954 0.227883 1.177849 0.421481 0.000000 0.000000 0.000000 
-471.639618 795.532471 1143.058960 41.306574 0.032702 0.209094 -0.429102 -1.762319 -1.231973 -0.299680 0.351650 0.247231 -0.324883 -0.329372 -0.174948 -0.016997 1.811002 0.318902 0.000000 0.000000 0.000000 -0.094157 0.767791 -0.085396 -0.119564 0.841927 0.709162 -0.399768 1.417136 -1.035799 0.000000 0.000000 0.000000 0.703669 0.435555 0.598842 -0.169464 0.774132 -0.769159 0.484825 1.065703 3.432262 0.000000 0.000000 0.000000 -0.211394 -0.290603 -1.443751 -0.174898 -0.643784 -0.221739 -0.162307 1.712472 0.293757 0.000000 0.000000 0.000000 0.138992 0.372645 0.602747 0.186279 -0.806061 -0.018619 0.227124 1.185695 0.423210 0.000000 0.000000 0.000000 
-471.818115 795.444092 1143.062012 41.303416 0.023144 0.205862 -0.428289 -1.720038 -1.221357 -0.301111 0.342617 0.246872 -0.326023 -0.320628 -0.173383 -0.016235 1.810235 0.314991 0.000000 0.000000 0.000000 -0.092661 0.764868 -0.081403 -0.117620 0.837358 0.716041 -0.396435 1.404592 -1.031488 0.000000 0.000000 0.000000 0.703073 0.432338 0.579949 -0.172378 0.771847 -0.789235 0.480942 1.052456 3.422841 0.000000 0.000000 0.000000 -0.211194 -0.300362 -1.443197 -0.173796 -0.625194 -0.221283 -0.161304 1.710353 0.293774 0.000000 0.000000 0.000000 0.138578 0.363442 0.597644 0.184903 -0.789988 -0.005772 0.226006 1.196030 0.425431 0.000000 0.000000 0.000000 
-471.989502 795.362915 1143.060059 41.301454 0.014182 0.202142 -0.427762 -1.683358 -1.208347 -0.302913 0.336749 0.243922 -0.327442 -0.313358 -0.170821 -0.015503 1.812420 0.311400 0.000000 0.000000 0.000000 -0.090905 0.762259 -0.076942 -0.116646 0.833673 0.722405 -0.394751 1.398595 -1.028821 0.000000 0.000000 0.000000 0.705589 0.431489 0.562830 -0.175823 0.772260 -0.811838 0.476547 1.037572 3.411123 0.000000 0.000000 0.000000 -0.211462 -0.309130 -1.442987 -0.173256 -0.608800 -0.219066 -0.160630 1.709012 0.293806 0.000000 0.000000 0.000000 0.138928 0.351002 0.593135 0.184146 -0.766324 0.006641 0.224845 1.198012 0.425410 0.000000 0.000000 0.000000 
-472.149597 795.288391 1143.051025 41.299549 0.005981 0.198602 -0.428298 -1.651900 -1.195675 -0.305550 0.331015 0.241203 -0.329751 -0.307950 -0.168542 -0.015157 1.817671 0.309531 0.000000 0.000000 0.000000 -0.086279 0.759912 -0.070450 -0.117186 0.832095 0.727390 -0.395703 1.403032 -1.029027 0.000000 0.000000 0.000000 0.715640 0.434738 0.548639 -0.180064 0.776431 -0.836777 0.471228 1.019632 3.396066 0.000000 0.000000 0.000000 -0.211631 -0.316404 -1.444377 -0.172751 -0.595873 -0.213990 -0.159642 1.709746 0.294432 0.000000 0.000000 0.000000 0.141085 0.335328 0.589500 0.185088 -0.734122 0.016719 0.224353 1.187801 0.422466 0.000000 0.000000 0.000000 
-472.302704 795.219543 1143.037964 41.298865 -0.002017 0.194700 -0.428997 -1.624435 -1.182388 -0.308224 0.327096 0.238423 -0.332116 -0.303652 -0.166048 -0.014849 1.824326 0.307808 0.000000 0.000000 0.000000 -0.082164 0.758029 -0.062984 -0.118522 0.831510 0.731518 -0.398088 1.413113 -1.031375 0.000000 0.000000 0.000000 0.727971 0.440290 0.535643 -0.184847 0.783183 -0.863864 0.465449 1.000245 3.379072 0.000000 0.000000 0.000000 -0.212316 -0.322443 -1.446037 -0.172859 -0.584823 -0.207503 -0.159073 1.711283 0.295035 0.000000 0.000000 0.000000 0.144154 0.316918 0.586442 0.186830 -0.694650 0.026114 0.224002 1.169711 0.417491 0.000000 0.000000 0.000000 
-472.455780 795.158569 1143.022949 41.299749 -0.010046 0.189658 -0.429993 -1.596260 -1.167402 -0.311356 0.322039 0.235235 -0.334890 -0.297493 -0.163398 -0.014199 1.831581 0.304774 0.000000 0.000000 0.000000 -0.078587 0.755966 -0.056958 -0.119863 0.830420 0.734986 -0.400051 1.421678 -1.031101 0.000000 0.000000 0.000000 0.741375 0.445638 0.523608 -0.189960 0.790539 -0.894360 0.460148 0.982252 3.365118 0.000000 0.000000 0.000000 -0.213189 -0.327465 -1.446358 -0.173260 -0.574781 -0.201807 -0.158865 1.712915 0.295489 0.000000 0.000000 0.000000 0.147113 0.294962 0.581649 0.188146 -0.647032 0.040892 0.223392 1.146567 0.411049 0.000000 0.000000 0.000000 
-472.606323 795.108704 1143.005981 41.304837 -0.018394 0.182975 -0.431183 -1.565972 -1.150502 -0.314847 0.314933 0.232164 -0.338062 -0.290989 -0.161724 -0.013596 1.841590 0.301985 0.000000 0.000000 0.000000 -0.080174 0.755939 -0.053350 -0.120376 0.829354 0.738960 -0.400496 1.424524 -1.026925 0.000000 0.000000 0.000000 0.750607 0.451553 0.513164 -0.195744 0.800586 -0.929628 0.455794 0.966858 3.357847 0.000000 0.000000 0.000000 -0.215025 -0.328991 -1.443668 -0.174932 -0.569336 -0.199210 -0.160181 1.716174 0.295587 0.000000 0.000000 0.000000 0.148809 0.268182 0.573339 0.187683 -0.587858 0.065802 0.221683 1.116899 0.402344 0.000000 0.000000 0.000000 
-472.756165 795.065857 1142.988037 41.311697 -0.026925 0.174882 -0.432190 -1.534510 -1.132865 -0.318125 0.307584 0.230513 -0.341067 -0.284852 -0.160022 -0.012569 1.852807 0.297539 0.000000 0.000000 0.000000 -0.084416 0.756787 -0.051279 -0.120594 0.828250 0.742412 -0.400302 1.424936 -1.021088 0.000000 0.000000 0.000000 0.758645 0.457833 0.502477 -0.201895 0.811784 -0.967558 0.451995 0.953061 3.354027 0.000000 0.000000 0.000000 -0.217318 -0.329057 -1.439066 -0.177206 -0.565433 -0.197736 -0.162189 1.719921 0.295470 0.000000 0.000000 0.000000 0.150158 0.238151 0.563629 0.186597 -0.520905 0.096092 0.219638 1.082603 0.392250 0.000000 0.000000 0.000000 
